<?xml version="1.0" encoding="utf-8"?>
<!-- Generator: Adobe Illustrator 25.4.1, SVG Export Plug-In . SVG Version: 6.00 Build 0)  -->
<svg version="1.1" id="Layer_1" xmlns="http://www.w3.org/2000/svg" xmlns:xlink="http://www.w3.org/1999/xlink" x="0px" y="0px"
	 viewBox="0 0 300 300" style="enable-background:new 0 0 300 300;" xml:space="preserve">
<style type="text/css">
	.st0{fill-rule:evenodd;clip-rule:evenodd;fill:#1D6CB1;}
</style>
<g>
	<path class="st0" d="M167.3,78.1c28,1.7,46.7,5,46.7,8.7c0,3.4-15.5,6.3-39.4,8.2v14.5c0,24.6-16.3,52.3-38.7,61.9v13.4
		c38.1,5.5,66.8,38.5,66.8,77H36.5c0-38.5,28.6-71.5,66.8-77v-13.4c-22.3-9.6-38.7-37.3-38.7-61.9V94.9c-23.8-1.8-39.4-4.8-39.4-8.2
		c0-3.7,18.8-6.9,46.7-8.7V52.7c0-7.9,6.5-14.4,14.4-14.4h66.6c7.9,0,14.4,6.5,14.4,14.4L167.3,78.1L167.3,78.1z M231.5,95.2h35.1
		v24.2H253v91.7c7.2,0.4,14.4,1.9,21.8,4.3v6.7c0,14.1-11.5,39.7-25.7,39.7s-25.7-25.6-25.7-39.7v-6.7c7.2-2.6,14.4-4,21.8-4.3
		v-91.6h-13.7L231.5,95.2L231.5,95.2z M237.2,100.3H261v14h-23.8L237.2,100.3L237.2,100.3z"/>
</g>
</svg>
