<svg height='300px' width='300px'  fill="#FFFFFF" xmlns="http://www.w3.org/2000/svg" viewBox="0 0 96 96" x="0px" y="0px"><title>Artboard 21</title><path d="M87.8964,81.3671C83.8493,69.2241,68.4177,60.6428,50,60.0569V39.9722c14,0,26-4.7534,26-25.9721a1.9988,1.9988,0,0,0-2-2C59.207,12,51.8384,14.2386,48,24.4122,44.1616,14.2386,36.793,12,22,12a1.9988,1.9988,0,0,0-2,2c0,21.2187,12,25.9721,26,25.9721V60.0569c-18.4177.5859-33.8493,9.1672-37.8964,21.31A2,2,0,0,0,10,84H86a2,2,0,0,0,1.8965-2.6328Z"></path></svg>