<?xml version="1.0" encoding="utf-8"?>
<!-- Generator: Adobe Illustrator 25.4.1, SVG Export Plug-In . SVG Version: 6.00 Build 0)  -->
<svg version="1.1" id="Layer_1" xmlns="http://www.w3.org/2000/svg" xmlns:xlink="http://www.w3.org/1999/xlink" x="0px" y="0px"
	 viewBox="0 0 104 40" style="enable-background:new 0 0 104 40;" xml:space="preserve">
<style type="text/css">
	.st0{fill:#FFBD00;}
	.st1{fill:#DCDCDC;}
</style>
<path class="st0" d="M11.38,22.03l1.92,3.89c0.19,0.38,0.55,0.64,0.97,0.71l4.3,0.62c1.06,0.15,1.48,1.45,0.71,2.2l-3.11,3.03
	c-0.3,0.3-0.44,0.72-0.37,1.14l0.73,4.28c0.18,1.05-0.92,1.86-1.87,1.36l-3.84-2.02c-0.38-0.2-0.82-0.2-1.2,0l-3.84,2.02
	c-0.95,0.5-2.05-0.31-1.87-1.36l0.73-4.28c0.07-0.42-0.07-0.84-0.37-1.14l-3.11-3.03c-0.76-0.75-0.34-2.04,0.71-2.2l4.3-0.62
	c0.42-0.06,0.78-0.32,0.97-0.71l1.92-3.89C9.54,21.07,10.91,21.07,11.38,22.03z"/>
<path class="st0" d="M32.26,22.03l1.92,3.89c0.19,0.38,0.55,0.64,0.97,0.71l4.3,0.62c1.06,0.15,1.48,1.45,0.71,2.2l-3.11,3.03
	c-0.3,0.3-0.44,0.72-0.37,1.14l0.73,4.28c0.18,1.05-0.92,1.86-1.87,1.36l-3.84-2.02c-0.38-0.2-0.82-0.2-1.2,0l-3.84,2.02
	c-0.95,0.5-2.05-0.31-1.87-1.36l0.73-4.28c0.07-0.42-0.07-0.84-0.37-1.14l-3.11-3.03c-0.76-0.75-0.34-2.04,0.71-2.2l4.3-0.62
	c0.42-0.06,0.78-0.32,0.97-0.71l1.92-3.89C30.43,21.07,31.79,21.07,32.26,22.03z"/>
<path class="st0" d="M53.15,22.03l1.92,3.89c0.19,0.38,0.55,0.64,0.97,0.71l4.3,0.62c1.06,0.15,1.48,1.45,0.71,2.2l-3.11,3.03
	c-0.3,0.3-0.44,0.72-0.37,1.14l0.73,4.28c0.18,1.05-0.92,1.86-1.87,1.36l-3.84-2.02c-0.38-0.2-0.82-0.2-1.2,0l-3.84,2.02
	c-0.95,0.5-2.05-0.31-1.87-1.36l0.73-4.28c0.07-0.42-0.07-0.84-0.37-1.14l-3.11-3.03c-0.76-0.75-0.34-2.04,0.71-2.2l4.3-0.62
	c0.42-0.06,0.78-0.32,0.97-0.71l1.92-3.89C51.31,21.07,52.67,21.07,53.15,22.03z"/>
<path class="st0" d="M74.03,22.03l1.92,3.89c0.19,0.38,0.55,0.64,0.97,0.71l4.3,0.62c1.06,0.15,1.48,1.45,0.71,2.2l-3.11,3.03
	c-0.3,0.3-0.44,0.72-0.37,1.14l0.73,4.28c0.18,1.05-0.92,1.86-1.87,1.36l-3.84-2.02c-0.38-0.2-0.82-0.2-1.2,0l-3.84,2.02
	c-0.95,0.5-2.05-0.31-1.87-1.36l0.73-4.28c0.07-0.42-0.07-0.84-0.37-1.14l-3.11-3.03c-0.76-0.75-0.34-2.04,0.71-2.2l4.3-0.62
	c0.42-0.06,0.78-0.32,0.97-0.71l1.92-3.89C72.19,21.07,73.56,21.07,74.03,22.03z"/>
<path class="st0" d="M94.91,22.03l1.92,3.89c0.19,0.38,0.55,0.64,0.97,0.71l4.3,0.62c1.06,0.15,1.48,1.45,0.71,2.2l-3.11,3.03
	c-0.3,0.3-0.44,0.72-0.37,1.14l0.73,4.28c0.18,1.05-0.92,1.86-1.87,1.36l-3.84-2.02c-0.38-0.2-0.82-0.2-1.2,0l-3.84,2.02
	c-0.95,0.5-2.05-0.31-1.87-1.36l0.73-4.28c0.07-0.42-0.07-0.84-0.37-1.14l-3.11-3.03c-0.76-0.75-0.34-2.04,0.71-2.2l4.3-0.62
	c0.42-0.06,0.78-0.32,0.97-0.71l1.92-3.89C93.07,21.07,94.44,21.07,94.91,22.03z"/>
<path class="st1" d="M11.38,1.54l1.92,3.89c0.19,0.38,0.55,0.64,0.97,0.71l4.3,0.62c1.06,0.15,1.48,1.45,0.71,2.2l-3.11,3.03
	c-0.3,0.3-0.44,0.72-0.37,1.14l0.73,4.28c0.18,1.05-0.92,1.86-1.87,1.36l-3.84-2.02c-0.38-0.2-0.82-0.2-1.2,0l-3.84,2.02
	c-0.95,0.5-2.05-0.31-1.87-1.36l0.73-4.28c0.07-0.42-0.07-0.84-0.37-1.14L1.17,8.96C0.4,8.21,0.83,6.91,1.88,6.76l4.3-0.62
	C6.6,6.07,6.96,5.81,7.15,5.43l1.92-3.89C9.54,0.58,10.91,0.58,11.38,1.54z"/>
<path class="st1" d="M32.26,1.54l1.92,3.89c0.19,0.38,0.55,0.64,0.97,0.71l4.3,0.62c1.06,0.15,1.48,1.45,0.71,2.2l-3.11,3.03
	c-0.3,0.3-0.44,0.72-0.37,1.14l0.73,4.28c0.18,1.05-0.92,1.86-1.87,1.36l-3.84-2.02c-0.38-0.2-0.82-0.2-1.2,0l-3.84,2.02
	c-0.95,0.5-2.05-0.31-1.87-1.36l0.73-4.28c0.07-0.42-0.07-0.84-0.37-1.14l-3.11-3.03c-0.76-0.75-0.34-2.04,0.71-2.2l4.3-0.62
	c0.42-0.06,0.78-0.32,0.97-0.71l1.92-3.89C30.43,0.58,31.79,0.58,32.26,1.54z"/>
<path class="st1" d="M53.15,1.54l1.92,3.89c0.19,0.38,0.55,0.64,0.97,0.71l4.3,0.62c1.06,0.15,1.48,1.45,0.71,2.2l-3.11,3.03
	c-0.3,0.3-0.44,0.72-0.37,1.14l0.73,4.28c0.18,1.05-0.92,1.86-1.87,1.36l-3.84-2.02c-0.38-0.2-0.82-0.2-1.2,0l-3.84,2.02
	c-0.95,0.5-2.05-0.31-1.87-1.36l0.73-4.28c0.07-0.42-0.07-0.84-0.37-1.14l-3.11-3.03c-0.76-0.75-0.34-2.04,0.71-2.2l4.3-0.62
	c0.42-0.06,0.78-0.32,0.97-0.71l1.92-3.89C51.31,0.58,52.67,0.58,53.15,1.54z"/>
<path class="st1" d="M74.03,1.54l1.92,3.89c0.19,0.38,0.55,0.64,0.97,0.71l4.3,0.62c1.06,0.15,1.48,1.45,0.71,2.2l-3.11,3.03
	c-0.3,0.3-0.44,0.72-0.37,1.14l0.73,4.28c0.18,1.05-0.92,1.86-1.87,1.36l-3.84-2.02c-0.38-0.2-0.82-0.2-1.2,0l-3.84,2.02
	c-0.95,0.5-2.05-0.31-1.87-1.36l0.73-4.28c0.07-0.42-0.07-0.84-0.37-1.14l-3.11-3.03c-0.76-0.75-0.34-2.04,0.71-2.2l4.3-0.62
	c0.42-0.06,0.78-0.32,0.97-0.71l1.92-3.89C72.19,0.58,73.56,0.58,74.03,1.54z"/>
<path class="st1" d="M94.91,1.54l1.92,3.89c0.19,0.38,0.55,0.64,0.97,0.71l4.3,0.62c1.06,0.15,1.48,1.45,0.71,2.2l-3.11,3.03
	c-0.3,0.3-0.44,0.72-0.37,1.14l0.73,4.28c0.18,1.05-0.92,1.86-1.87,1.36l-3.84-2.02c-0.38-0.2-0.82-0.2-1.2,0l-3.84,2.02
	c-0.95,0.5-2.05-0.31-1.87-1.36l0.73-4.28c0.07-0.42-0.07-0.84-0.37-1.14L84.7,8.96c-0.76-0.75-0.34-2.04,0.71-2.2l4.3-0.62
	c0.42-0.06,0.78-0.32,0.97-0.71l1.92-3.89C93.07,0.58,94.44,0.58,94.91,1.54z"/>
</svg>
