<?xml version="1.0" encoding="utf-8"?>
<!-- Generator: Adobe Illustrator 25.4.1, SVG Export Plug-In . SVG Version: 6.00 Build 0)  -->
<svg version="1.1" id="Layer_1" xmlns="http://www.w3.org/2000/svg" xmlns:xlink="http://www.w3.org/1999/xlink" x="0px" y="0px"
	 viewBox="0 0 95 40" style="enable-background:new 0 0 95 40;" xml:space="preserve">
<style type="text/css">
	.st0{fill:none;}
	.st1{fill:#F08700;}
	.st2{fill:#FFFFFF;}
</style>
<g>
	<rect y="0" class="st0" width="95" height="40"/>
	<g>
		<circle class="st1" cx="24.4" cy="20.7" r="12.3"/>
		<g>
			<path class="st2" d="M41.6,13.5h-5c-2.5-4.1-6.9-6.8-12-6.8s-9.6,2.7-12,6.8h-5c-1,0-1.9,0.8-1.9,1.9s0.8,1.9,1.9,1.9H11
				c-0.3,1.1-0.4,2.3-0.4,3.5c0,7.8,6.3,14.1,14.1,14.1s14.1-6.3,14.1-14.1c0-1.2-0.2-2.4-0.4-3.5h3.4c1,0,1.9-0.8,1.9-1.9
				S42.7,13.5,41.6,13.5z M24.6,10.5c2.8,0,5.4,1.2,7.3,3H17.3C19.2,11.6,21.8,10.5,24.6,10.5z M24.6,31c-5.7,0-10.3-4.6-10.3-10.3
				c0-1.2,0.2-2.4,0.6-3.5h19.3c0.4,1.1,0.6,2.2,0.6,3.5C34.9,26.4,30.3,31,24.6,31z"/>
			<path class="st2" d="M30.2,23.2c-0.6-0.4-1.4-0.3-1.8,0.3c-0.9,1.2-2.3,2-3.8,2s-3-0.7-3.8-2c-0.4-0.6-1.2-0.7-1.8-0.3
				c-0.6,0.4-0.7,1.2-0.3,1.8c1.4,1.9,3.6,3,5.9,3s4.5-1.1,5.9-3C30.9,24.4,30.8,23.6,30.2,23.2z"/>
		</g>
		<g>
			<path class="st2" d="M53.8,12.1h4.7c1.1,0,2-0.9,2-2s-0.9-2-2-2h-4.7c-1.1,0-2,0.9-2,2S52.7,12.1,53.8,12.1z"/>
			<path class="st2" d="M64.9,13.5H47.5c-1.1,0-2,0.9-2,2s0.9,2,2,2h1.4c-0.2,0.7-0.3,1.5-0.3,2.2c0,3.5,2.4,6.5,5.6,7.4v1.1h-4.7
				c-1.1,0-2,0.9-2,2s0.9,2,2,2H63c1.1,0,2-0.9,2-2s-0.9-2-2-2h-4.7v-1.1c3.2-0.9,5.6-3.9,5.6-7.4c0-0.8-0.1-1.5-0.3-2.2H65
				c1.1,0,2-0.9,2-2S66,13.5,64.9,13.5z M59.8,19.8c0,2-1.6,3.6-3.6,3.6s-3.6-1.6-3.6-3.6c0-0.8,0.3-1.6,0.8-2.2H59
				C59.5,18.2,59.8,19,59.8,19.8z"/>
			<path class="st2" d="M78,13.5h-4.4c-3,0-5.4,2.4-5.4,5.4V27c0,3,2.4,5.4,5.4,5.4H78c3,0,5.4-2.4,5.4-5.4v-8.1
				C83.4,15.9,81,13.5,78,13.5z M79.3,27c0,0.7-0.6,1.3-1.3,1.3h-4.4c-0.7,0-1.3-0.6-1.3-1.3v-8.1c0-0.7,0.6-1.3,1.3-1.3H78
				c0.7,0,1.3,0.6,1.3,1.3V27z"/>
			<path class="st2" d="M87.2,13.5c-1.1,0-2,0.9-2,2v14.8c0,1.1,0.9,2,2,2s2-0.9,2-2V15.5C89.2,14.4,88.3,13.5,87.2,13.5z"/>
		</g>
		<g>
			<path class="st2" d="M76.5,8.6c0.6,0.2,0.9,0.7,0.9,1.2l0,0c0,1.2-0.9,1.6-2.1,1.6H74c-0.8,0-1.1-0.3-1.1-1.1V7
				C73,6.3,73.2,6,74,6h1c1.2,0,2.1,0.6,2.1,1.6l0,0C77.1,8,76.9,8.4,76.5,8.6z M74.3,7.3v0.8H75c0.5,0,0.6-0.3,0.6-0.5l0,0
				c0-0.2-0.2-0.5-0.6-0.5h-0.5C74.4,7.1,74.3,7.2,74.3,7.3z M74.3,9.3v0.8c0,0.2,0,0.2,0.2,0.2h0.8c0.5,0,0.6-0.2,0.6-0.5l0,0
				c0-0.2-0.2-0.5-0.6-0.5H74.3z"/>
			<path class="st2" d="M77.8,9.7V9.1c0-1.5,1.1-1.9,1.9-1.9c0.9,0,1.9,0.4,1.9,2.2c0,0.1,0,0.3,0,0.4h-2.4l0,0
				c0,0.5,0.5,0.6,0.8,0.6s0.5,0,0.7-0.1c0.1,0,0.2-0.1,0.3-0.1c0.2,0,0.5,0.1,0.5,0.3c0.1,0.3,0,0.6-0.3,0.8
				c-0.2,0.1-0.7,0.3-1.2,0.3C78.9,11.6,77.8,11.1,77.8,9.7z M79.1,8.9h1.2c0-0.5-0.3-0.6-0.6-0.6S79.1,8.4,79.1,8.9z"/>
			<path class="st2" d="M82.7,8.4h-0.2c-0.4,0-0.6-0.3-0.6-0.6c0-0.3,0.2-0.6,0.6-0.6h0.2V6.6c0-0.5,0.3-0.7,0.7-0.7
				c0.3,0,0.7,0.2,0.7,0.7v0.7h0.4c0.4,0,0.6,0.3,0.6,0.6c0,0.3-0.2,0.6-0.6,0.6h-0.4v1.7c0,0.2,0.1,0.3,0.2,0.3s0.2,0,0.3,0
				c0.2,0,0.4,0.2,0.5,0.4c0.1,0.3-0.1,0.5-0.3,0.6c-0.2,0.1-0.4,0.2-0.6,0.2c-0.9,0-1.4-0.4-1.4-1.4L82.7,8.4L82.7,8.4z"/>
			<path class="st2" d="M88,11.5l-0.1-0.3c-0.3,0.2-0.6,0.4-1,0.4h-0.2c-0.6,0-1.4-0.3-1.4-1.4c0-1,0.8-1.4,1.7-1.4h0.7
				c0-0.4-0.3-0.5-0.6-0.5c-0.2,0-0.3,0-0.5,0.1c-0.1,0-0.2,0.1-0.3,0.1c-0.2,0.1-0.6,0-0.7-0.2c-0.1-0.3,0-0.6,0.2-0.7
				c0.4-0.3,0.9-0.4,1.4-0.4c1,0,1.9,0.3,1.9,1.8v2.4L88,11.5L88,11.5z M87.7,9.8h-0.6c-0.3,0-0.4,0.1-0.4,0.3s0.1,0.3,0.4,0.3h0.1
				c0.3,0,0.5-0.2,0.5-0.4V9.8z"/>
		</g>
	</g>
</g>
</svg>
